<?xml version="1.0" encoding="UTF-8"?>
<svg xmlns="http://www.w3.org/2000/svg" xmlns:xlink="http://www.w3.org/1999/xlink" viewBox="0 0 24 24" width="24px" height="24px">
<g id="surface64070123">
<path style=" stroke:none;fill-rule:nonzero;fill:rgb(20%,20%,20%);fill-opacity:1;" d="M 8.25 5.25 C 4.519531 5.25 1.5 8.269531 1.5 12 C 1.5 15.730469 4.519531 18.75 8.25 18.75 C 11.980469 18.75 15 15.730469 15 12 C 15 11.539062 14.949219 11.085938 14.859375 10.648438 L 14.824219 10.5 L 8.25 10.5 L 8.25 12.75 L 12.75 12.75 C 12.394531 14.878906 10.480469 16.5 8.25 16.5 C 5.765625 16.5 3.75 14.484375 3.75 12 C 3.75 9.515625 5.765625 7.5 8.25 7.5 C 9.375 7.5 10.402344 7.914062 11.191406 8.597656 L 12.800781 7.019531 C 11.601562 5.921875 10.003906 5.25 8.25 5.25 Z M 18.75 8.25 L 18.75 10.5 L 16.5 10.5 L 16.5 12 L 18.75 12 L 18.75 14.25 L 20.25 14.25 L 20.25 12 L 22.5 12 L 22.5 10.5 L 20.25 10.5 L 20.25 8.25 Z M 18.75 8.25 "/>
</g>
</svg>
