<?xml version="1.0" encoding="UTF-8"?>
<svg xmlns="http://www.w3.org/2000/svg" xmlns:xlink="http://www.w3.org/1999/xlink" viewBox="0 0 24 24" width="24px" height="24px">
<g id="surface64071182">
<path style=" stroke:none;fill-rule:nonzero;fill:rgb(20%,20%,20%);fill-opacity:1;" d="M 6.480469 3 C 5.386719 3 4.5 3.886719 4.5 4.980469 C 4.5 6.074219 5.386719 6.980469 6.480469 6.980469 C 7.574219 6.980469 8.460938 6.074219 8.460938 4.980469 C 8.460938 3.886719 7.578125 3 6.480469 3 Z M 16.152344 8.25 C 14.488281 8.25 13.535156 9.121094 13.078125 9.984375 L 13.03125 9.984375 L 13.03125 8.484375 L 9.75 8.484375 L 9.75 19.5 L 13.167969 19.5 L 13.167969 14.046875 C 13.167969 12.609375 13.277344 11.21875 15.054688 11.21875 C 16.808594 11.21875 16.832031 12.859375 16.832031 14.136719 L 16.832031 19.5 L 20.25 19.5 L 20.25 13.449219 C 20.25 10.488281 19.613281 8.25 16.152344 8.25 Z M 4.773438 8.484375 L 4.773438 19.5 L 8.191406 19.5 L 8.191406 8.484375 Z M 4.773438 8.484375 "/>
</g>
</svg>
